# xmcd
#
# Track frame offsets:
# 150
# 19505
# 33813
# 52073
# 66182
# 80359
# 96836
# 108964
# 131358
# 144230
# 158893
# 174477
# 191372
#
# Disc length: 2716 seconds
#
#
# Revision: 1
# Processed by: cddbd v1.5.2PL0 Copyright (c) Steve Scherf et al.
# Submitted via: FreeRIP 2.951 
#
DISCID=9d0a9a0d
DTITLE=Dolly Parton - The Grass Is Blue
DYEAR=1900
DGENRE=
TTITLE0=Travelin' Prayer
TTITLE1=Cash on the Barrelhead
TTITLE2=A Few Old Memories
TTITLE3=I'm Gonna Sleep With One Eye Open
TTITLE4=Steady As the Rain
TTITLE5=I Still Miss Someone
TTITLE6=Endless Stream of Tears
TTITLE7=Silver Dagger
TTITLE8=Train, Train
TTITLE9=I Wonder Where You Are Tonight
TTITLE10=Will He Be Waiting For Me
TTITLE11=The Grass Is Blue
TTITLE12=I Am Ready
EXTD=
EXTT0=
EXTT1=
EXTT2=
EXTT3=
EXTT4=
EXTT5=
EXTT6=
EXTT7=
EXTT8=
EXTT9=
EXTT10=
EXTT11=
EXTT12=
PLAYORDER=
